<?xml version="1.0" standalone="no"?>
<!DOCTYPE svg PUBLIC "-//W3C//DTD SVG 20010904//EN"
 "http://www.w3.org/TR/2001/REC-SVG-20010904/DTD/svg10.dtd">
<svg version="1.0" xmlns="http://www.w3.org/2000/svg"
 width="650.000000pt" height="650.000000pt" viewBox="0 0 650.000000 650.000000"
 preserveAspectRatio="xMidYMid meet">
<metadata>
Created by potrace 1.11, written by Peter Selinger 2001-2013
</metadata>
<g transform="translate(0.000000,650.000000) scale(0.100000,-0.100000)"
fill="#000000" stroke="none">
<path d="M3875 4669 c-22 -4 -67 -19 -99 -33 -32 -14 -80 -32 -106 -40 -42
-13 -51 -12 -69 0 -17 12 -21 12 -22 2 0 -7 -2 -22 -4 -33 -5 -24 12 -45 36
-45 17 0 17 -2 -1 -42 -25 -57 -28 -82 -29 -213 -1 -104 -2 -111 -22 -112 -33
-3 -83 -37 -93 -65 -12 -35 18 -76 77 -106 25 -12 45 -28 44 -35 -2 -66 3 -77
60 -122 32 -24 79 -52 104 -61 44 -16 47 -20 61 -69 l14 -52 -115 -37 c-150
-49 -201 -83 -201 -133 0 -20 -5 -23 -42 -24 -24 -1 -54 -2 -68 -4 -14 -2 -54
-6 -90 -10 -148 -15 -201 -40 -323 -155 -35 -33 -67 -60 -71 -60 -3 0 -24 19
-45 42 l-39 41 -203 -1 c-112 0 -198 2 -193 6 16 10 18 1 -96 382 -34 113 -86
285 -115 384 -30 98 -56 180 -59 183 -2 3 -24 9 -48 15 -38 9 -65 14 -173 34
-16 3 -44 9 -61 13 -23 6 -44 3 -85 -14 -29 -13 -55 -27 -57 -33 -1 -5 11 -61
28 -123 17 -63 40 -145 50 -184 10 -38 23 -84 28 -101 9 -29 7 -32 -22 -49
-164 -96 -210 -326 -112 -571 21 -53 76 -174 80 -174 0 0 1 53 1 118 0 108 2
121 28 174 20 41 40 65 74 87 26 17 50 28 54 24 4 -5 17 -44 29 -88 41 -153
33 -142 98 -149 45 -4 86 1 197 28 77 18 142 32 143 30 2 -1 1 -11 -2 -22 -6
-18 -37 -27 -236 -67 -3 -1 -31 -7 -63 -14 l-58 -13 3 -81 c3 -78 4 -81 28
-83 84 -5 216 -16 229 -19 9 -1 61 -6 116 -10 55 -4 108 -9 119 -11 28 -5 136
55 136 76 0 12 10 19 30 22 38 6 42 3 69 -53 14 -31 32 -51 50 -59 27 -11 44
-10 171 5 19 2 59 7 88 10 29 3 75 10 104 15 68 13 76 13 53 -4 -16 -10 -292
-87 -368 -102 -191 -36 -310 -141 -309 -271 0 -62 34 -142 91 -218 36 -48 103
-149 149 -226 l21 -35 -94 -43 c-106 -49 -121 -61 -130 -112 -5 -29 -2 -41 19
-66 32 -38 107 -71 186 -82 118 -16 147 -9 314 74 153 76 155 77 180 128 28
56 31 78 16 108 -8 15 -6 24 9 40 18 19 18 45 1 59 -3 3 -16 21 -28 41 l-22
37 37 -9 c21 -4 202 -7 403 -6 l365 2 57 28 c68 33 120 91 147 161 29 75 24
280 -7 348 -12 26 -26 49 -32 53 -5 3 10 34 33 68 23 34 49 77 56 95 16 38 24
40 38 9 14 -30 65 -55 103 -49 60 9 91 62 105 182 3 30 8 66 10 80 19 135 28
203 46 350 13 111 3 147 -52 176 -69 35 -141 -13 -155 -104 l-7 -47 -14 40
c-15 45 -48 83 -80 96 -15 5 -40 42 -73 108 -27 56 -50 106 -50 113 0 7 15 25
34 40 45 36 84 119 92 195 8 72 -10 183 -38 233 -31 56 -155 132 -283 173 -66
21 -102 25 -150 16z m328 -1881 c39 -37 57 -82 59 -150 2 -89 -1 -121 -12
-138 -8 -13 -11 -13 -22 2 -26 35 -83 48 -214 50 -107 2 -123 4 -107 15 32 24
144 126 202 185 31 32 59 58 63 58 4 0 18 -10 31 -22z"/>
</g>
</svg>
